PathFileType	4	(X/Y/Z)	C:/Users/opensim2020/Desktop/walking_exp_matlab/subject02_walking10_straight_04.trc	
DataRate	CameraRate	NumFrames	NumMarkers	Units	OrigDataRate	OrigDataStartFrame	OrigNumFrames	
100.00	100.00	5	43	mm	100.00	3182	260	
Frame#	Time	LFHD			RFHD			LBHD			RBHD			C7			T10			CLAV			STRN			RBAK			LSHO			LUPA			LELB			LFRM			LWRA			LWRB			LFIN			RSHO			RUPA			RELB			RFRM			RWRA			RWRB			RFIN			LASI			RASI			LPSI			RPSI			LTHI			LKNE			LTIB			LANK			LHEE			LTOE			RTHI			RKNE			RTIB			RANK			RHEE			RTOE			*39			*40			*41			*42			
		X1	Y1	Z1	X2	Y2	Z2	X3	Y3	Z3	X4	Y4	Z4	X5	Y5	Z5	X6	Y6	Z6	X7	Y7	Z7	X8	Y8	Z8	X9	Y9	Z9	X10	Y10	Z10	X11	Y11	Z11	X12	Y12	Z12	X13	Y13	Z13	X14	Y14	Z14	X15	Y15	Z15	X16	Y16	Z16	X17	Y17	Z17	X18	Y18	Z18	X19	Y19	Z19	X20	Y20	Z20	X21	Y21	Z21	X22	Y22	Z22	X23	Y23	Z23	X24	Y24	Z24	X25	Y25	Z25	X26	Y26	Z26	X27	Y27	Z27	X28	Y28	Z28	X29	Y29	Z29	X30	Y30	Z30	X31	Y31	Z31	X32	Y32	Z32	X33	Y33	Z33	X34	Y34	Z34	X35	Y35	Z35	X36	Y36	Z36	X37	Y37	Z37	X38	Y38	Z38	X39	Y39	Z39	X40	Y40	Z40	X41	Y41	Z41	X42	Y42	Z42	X43	Y43	Z43	

131	1.300	-1028.05347	-285.92160	1743.64587	-1167.41455	-288.71542	1710.73584	-1016.15967	-151.96373	1675.77051	-1156.20837	-142.23668	1641.59827	-1075.10315	-101.58372	1519.79541	-1070.61755	-54.57780	1246.35388	-1056.54260	-244.19011	1458.86816	-1057.45996	-300.31097	1287.21912	-1133.31555	-50.12905	1342.34070	-892.09613	-170.78973	1507.74524	-788.67487	-199.16483	1318.97925	-758.77502	-239.81042	1185.43091	-742.59845	-308.59061	1071.49072	-775.66278	-412.02167	984.77026	-738.20062	-373.13431	967.17920	-733.53363	-423.12024	922.91809	-1257.55530	-186.40248	1480.53430	-1336.43787	-165.08150	1286.87488	-1357.78784	-187.72089	1142.85168	-1375.38550	-232.85164	1030.55884	-1354.55103	-298.58795	913.22626	-1387.20032	-253.70967	902.17310	-1388.71802	-301.36066	846.69489	-923.83081	-275.88446	983.80670	-1179.18555	-289.47836	977.38818	-1014.40436	-71.07144	1028.26025	-1128.51904	-69.58543	1026.51111	-890.74243	-182.43286	671.78015	-928.63776	-127.23265	474.38019	-938.26746	-46.54515	295.85284	-983.90576	-23.99880	74.57947	-1038.21826	11.37740	49.47739	-960.49255	-177.02063	32.42315	-1271.87915	-285.17200	684.09680	-1248.82190	-355.81473	488.58380	-1258.86365	-332.92389	302.79172	-1233.32300	-337.44727	109.36150	-1172.83801	-320.51627	51.36895	-1270.01501	-487.79294	63.91174	-1126.43518	-189.27982	1803.75012									 
132	1.310	-1028.88794	-294.74857	1742.19385	-1168.72668	-297.46518	1709.40979	-1017.12830	-160.84966	1675.00964	-1156.78198	-150.73810	1640.68567	-1075.66553	-110.03413	1519.00378	-1071.10583	-62.64743	1245.59741	-1057.62585	-252.25960	1457.69019	-1058.41772	-308.23499	1286.05432	-1133.71326	-58.06710	1341.52051	-892.91022	-179.56380	1507.01685	-789.82996	-209.28136	1318.23425	-759.66766	-250.00768	1185.01758	-743.23083	-319.44513	1071.74573	-775.73505	-423.72833	985.70673	-738.73767	-385.19357	967.87933	-733.41455	-434.98611	924.21588	-1258.40601	-194.23987	1479.41650	-1336.94031	-171.92239	1285.76086	-1358.62561	-193.55879	1141.74292	-1376.54211	-237.71841	1028.98560	-1355.68164	-302.32028	910.80280	-1388.12195	-257.47198	900.39539	-1389.99133	-304.39014	844.50653	-924.36530	-283.15494	982.55872	-1179.76733	-297.28699	976.21997	-1015.46112	-78.72482	1027.70850	-1129.59692	-77.63821	1025.72314	-891.18195	-187.31865	671.09711	-928.99573	-130.81659	474.24506	-938.65869	-48.49710	296.28601	-983.93250	-24.24872	75.13291	-1038.54150	11.31706	50.18697	-960.40546	-177.09764	32.37199	-1272.26147	-291.40268	682.45734	-1248.33752	-363.41428	487.17255	-1260.44250	-349.49658	300.77676	-1235.62939	-362.56683	107.32116	-1175.88354	-347.55869	48.74680	-1271.16687	-515.12854	67.89949	-1127.21838	-198.35515	1802.59436									 
133	1.320	-1029.94788	-303.62335	1741.16736	-1170.24487	-306.31906	1707.92188	-1018.29535	-170.18091	1673.98401	-1157.59814	-159.37422	1639.91345	-1076.45605	-118.49221	1518.19263	-1071.89050	-70.73865	1244.81714	-1058.64221	-260.89240	1456.69543	-1059.45740	-316.27924	1284.87341	-1133.95117	-66.18211	1340.67639	-893.82550	-188.32584	1506.23291	-790.91638	-218.20277	1317.51880	-760.77106	-260.20413	1184.56238	-744.20892	-330.63116	1071.71252	-776.02252	-435.32330	986.39941	-739.36639	-396.31284	968.28790	-733.51599	-446.35083	924.87646	-1259.32922	-202.18053	1478.06384	-1337.66528	-178.77493	1284.65747	-1359.07910	-199.66188	1140.53320	-1377.73865	-242.51393	1027.43530	-1357.08154	-306.26801	908.84503	-1389.49377	-260.99643	898.79803	-1391.33875	-307.35269	842.44434	-924.90210	-290.44296	981.38245	-1180.26514	-305.66113	975.11798	-1016.78217	-86.35652	1027.17102	-1130.96643	-85.88349	1024.92847	-891.73181	-192.14584	670.54150	-929.43274	-134.44691	474.03479	-938.92682	-50.61311	296.84479	-983.97424	-24.53176	75.74051	-1038.67017	10.90815	50.84498	-960.01434	-177.39929	32.42065	-1272.87646	-297.49857	680.67084	-1247.91211	-370.85574	485.88641	-1261.67004	-365.23239	299.29279	-1237.90002	-386.58487	106.17759	-1178.48608	-373.40771	46.74454	-1271.84021	-541.38898	72.38835	-1128.66089	-207.56334	1801.79138									 
134	1.330	-1031.38391	-312.83670	1739.94006	-1171.55359	-314.90771	1706.71387	-1019.26752	-178.87239	1673.56531	-1158.69507	-167.92778	1638.99902	-1077.42505	-126.93054	1517.33838	-1072.77502	-79.01670	1243.95959	-1059.88062	-269.11307	1455.47693	-1060.56860	-324.45010	1283.70679	-1134.67261	-74.19953	1339.69946	-894.90802	-197.09871	1505.34143	-792.35858	-227.81000	1316.42297	-762.02002	-269.96906	1183.89990	-745.38098	-340.89282	1071.44324	-776.39960	-445.83405	986.58008	-740.13220	-406.93503	968.13928	-733.74591	-457.51025	925.49969	-1260.52356	-209.94547	1477.16809	-1338.51746	-185.71289	1283.51086	-1360.12817	-205.69685	1139.44678	-1378.37378	-247.57762	1026.02515	-1358.39478	-310.23529	906.79340	-1390.58960	-264.88950	897.00342	-1392.78613	-310.49139	840.21283	-925.31250	-297.89383	980.09216	-1180.58435	-315.46085	974.36060	-1018.24146	-94.23418	1026.42334	-1132.57629	-94.28072	1024.10876	-892.44202	-197.28273	669.79352	-929.99371	-138.16618	473.84286	-939.19934	-52.74424	297.45917	-984.00928	-24.72942	76.44870	-1038.64832	10.77583	51.79938	-960.01984	-177.13483	32.48038	-1273.69873	-303.57755	678.93140	-1247.72351	-378.32990	484.68933	-1262.63916	-380.19119	298.22226	-1240.02966	-409.69495	105.70969	-1181.22363	-397.89777	45.88290	-1271.98206	-566.52673	77.50664	-1130.11963	-216.75975	1800.87219									 
135	1.340	-1032.93396	-322.00800	1738.75720	-1173.13196	-323.58051	1705.43347	-1020.38635	-187.79308	1672.35303	-1159.90088	-176.44472	1638.07324	-1078.49854	-135.50853	1516.40198	-1073.90125	-87.31454	1243.01050	-1061.19666	-277.52783	1454.37744	-1061.76501	-332.65646	1282.53247	-1135.13525	-82.43613	1338.73657	-896.04773	-205.95697	1504.46643	-793.62836	-237.06085	1315.69214	-763.50928	-279.61816	1183.13428	-746.52411	-350.97546	1070.93396	-776.86401	-456.49219	986.71057	-741.18280	-417.34988	968.00934	-733.90204	-468.28156	925.92261	-1261.77161	-217.98079	1475.85999	-1339.39270	-192.77242	1282.30396	-1360.69409	-212.02931	1138.11157	-1379.72144	-252.72169	1024.39246	-1359.83655	-314.05368	904.38098	-1392.18140	-268.61594	895.43951	-1394.25061	-313.73163	837.95221	-925.78119	-305.21426	978.78754	-1181.06628	-323.98615	973.06036	-1019.96423	-102.10387	1025.57239	-1134.43726	-102.93175	1023.28375	-892.91998	-202.35298	669.38629	-930.60126	-141.98312	473.69223	-939.72882	-54.86079	298.14050	-984.08112	-24.99262	77.31980	-1038.70728	10.85899	52.81350	-959.90503	-177.15689	32.45600	-1274.40149	-309.39252	677.33270	-1247.69287	-385.80762	483.47791	-1263.60876	-394.45963	297.34607	-1241.97351	-431.46899	105.71180	-1183.78247	-420.93457	45.14301	-1271.70679	-589.59381	82.88824	-1131.20508	-225.56514	1799.69824									 
